PathFileType	4	(X/Y/Z)	/home/abdul/Documents/myosuite/MHH/MHH/IK/original/output/S5_12_1.trc
DataRate	CameraRate	NumFrames	NumMarkers	Units	OrigDataRate	OrigDataStartFrame	OrigNumFrames
200.0	200.0	62	3	mm	200.0	476	1267
Frame#	Time	V_Shoulder			V_Elbow			V_Wrist		
		X1	Y1	Z1	X2	Y2	Z2	X3	Y3	Z3

476	2.375	2.621642851530295	758.3326454085558	260.92030087190903	-114.946225679205	510.42644788342614	128.84246743835504	37.073444137998074	564.4597059801929	305.6762598868331
477	2.38	2.628831919917428	758.2586315145348	260.95450632034596	-114.68341426878183	510.1596485599694	129.08895827758565	37.24842216260199	564.575458122051	305.8607087531027
478	2.385	2.636854536922398	758.184689405631	260.98922447811856	-114.41627137733039	509.891284682388	129.3377386105123	37.42521838723054	564.6961123807766	306.04645543468894
479	2.39	2.6457061787179286	758.1109246056216	261.02445467586494	-114.1448219752797	509.62145234213506	129.58888707154023	37.6037210666162	564.8216342470212	306.23367720041443
480	2.395	2.65538166801722	758.0374414131696	261.0601960445212	-113.86909673298608	509.3502469093165	129.8424856732339	37.78381779814434	564.951983437887	306.4225537713267
481	2.4	2.665875204617031	757.9643427433499	261.09644748364394	-113.58913199647341	509.0777630112092	130.09861934896713	37.96539583325358	565.087114283646	306.61326653869554
482	2.405	2.6771803968397276	757.8917299717668	261.13320763068504	-113.30496976177184	508.80409452234244	130.35737547385747	38.148342384314645	565.2269761001704	306.80599776906445
483	2.41	2.689290293745987	757.8197027817941	261.17047483132393	-113.01665764778423	508.52933456606013	130.61884336593764	38.332544925561244	565.3715135456247	307.0009297998671
484	2.415	2.702197417984286	757.7483590154453	261.2082471109549	-112.72424886756518	508.2535755273926	130.88311376963262	38.51789148667386	565.5206669601496	307.198244229157
485	2.42	2.7158937991385392	757.6777945283794	261.24652214741917	-112.42780219785615	507.9769090769829	131.15027832372024	38.70427093765497	565.6743726874547	307.39812110302034
486	2.425	2.730371007431458	757.6081030495225	261.2852972450648	-112.12738194668154	507.69942620572147	131.42042901605546	38.89157326368088	565.8325633774193	307.60073810424194
487	2.43	2.745620187638366	757.5393760457787	261.32456931020573	-111.82305791877602	507.4212172696591	131.69365762743124	39.07968982867219	565.9951682689873	307.80626974577666
488	2.435	2.7616320930643066	757.471702592274	261.3643348280494	-111.51490537858182	507.1423720446835	131.97005516703268	39.26851362638883	566.1621134528289	308.01488657254686
489	2.44	2.7783971194364123	757.4051692485572	261.4045898411474	-111.20300501052573	506.86297979036215	132.2497113020144	39.457939517928935	566.333322113423	308.22675437503057
490	2.445	2.795905338563639	757.339859941158	261.44532992942317	-110.88744287626068	506.58312932227636	132.5327137837919	39.6478644545895	566.5087147503947	308.4420334180427
491	2.45	2.8141465316170966	757.275855852874	261.48655019181683	-110.56831036853428	506.30290909209646	132.81914787368873	39.83818768513305	566.6882093791163	308.6608776880231
492	2.455	2.8331102218863813	757.2132353191273	261.52824522958537	-110.24570416132681	506.02240727457695	133.10909577061616	40.028810946595605	566.871721710754	308.8834341620505
493	2.46	2.8527857068704328	757.152073731704	261.57040913128526	-109.91972615588335	505.7417118605864	133.40263604348638	40.21963863786714	567.0591653121036	309.10984210168715
494	2.465	2.873162089565545	757.0924434501532	261.6130354594605	-109.59048342225043	505.4609107552259	133.69984307106756	40.410577975375325	567.2504517457185	309.3402323746355
495	2.47	2.894228308818232	757.034413721091	261.65611723905135	-109.25808813591341	505.1800918800376	134.00078649198417	40.601539130306605	567.4454906909831	309.57472680704916
496	2.475	2.9159731686165578	756.978050605615	261.6996469475344	-108.92265750911984	504.8993432782552	134.30553066754237	40.79243534690367	567.6441900469267	309.81343756919057
497	2.48	2.9383853662004054	756.9234169150042	261.7436165067973	-108.58431371646437	504.6187532220099	134.61413416002574	40.98318304148573	567.8464560177085	310.0564665969672
498	2.485	2.9614535188787223	756.8705721548382	261.7880172767484	-108.24318381430191	504.3384103203729	134.9266492290501	41.17370188194574	568.0521931818266	310.3039050517086
499	2.49	2.985166189450169	756.8195724776274	261.83284005065343	-107.89939965354989	504.05840362708807	135.24312134850032	41.36391484758807	568.2613045462217	310.5558328203633
500	2.495	3.0095119101326357	756.7704706440173	261.87807505219223	-107.55309778543433	503.77882274683265	135.56358874648544	41.55374826927802	568.473691586548	310.81231805810796
501	2.5	3.0344792049167637	756.7233159925823	261.9237119342192	-107.20441935973275	503.49975793883345	135.88808197064836	41.74313184998343	568.6892542749779	311.073416775159
502	2.505	3.0600566102688105	756.6781544181882	261.96973977921147	-106.8535100150636	503.2213002166653	136.21662348105147	41.931998665895485	568.9078910969943	311.3391724693758
503	2.51	3.0862326941188574	756.6350283588675	262.01614710138347	-106.500519760774	502.94354144306396	136.5492272727293	42.120285148421914	569.1294990586891	311.60961580602816
504	2.515	3.112996073081415	756.5939767911046	262.06292185044623	-106.14560284998022	502.66657441860264	136.88589852985507	42.30793104744987	569.3539736861507	311.8847643458836
505	2.52	3.140335427866877	756.5550352334045	262.110051416985	-105.78891764332191	502.3904929631012	137.2266333133118	42.49487937637812	569.5812090185661	312.16462232254463
506	2.525	3.168239516853777	756.5182357579623	262.15752263942767	-105.43062646299988	502.1153919886708	137.57141828328875	42.68107633951783	569.8110975967013	312.4491804697379
507	2.53	3.196697187803554	756.4836070102375	262.2053218125765	-105.07089543668107	501.84136756333294	137.9202304583455	42.8664712425583	570.0435304484383	312.73841589902304
508	2.535	3.2256973877112647	756.4511742361825	262.2534346976713	-104.70989433087104	501.5685169641978	138.2730370121947	43.05101638688831	570.2783970730619	313.032292028155
509	2.54	3.255229170797367	756.4209593168566	262.301846533954	-104.34779637337661	501.29693871924144	138.62979510925896	43.23466694865417	570.5155854259724	313.33075856009526
510	2.545	3.2852817046572524	756.3929808101151	262.35054205170167	-103.98477806450848	501.02673263677787	138.99045177985028	43.41738084352261	570.7549819054902	313.6337515124298
511	2.55	3.3158442745965875	756.367253999042	262.3995054866948	-103.6210189767054	500.75799982179046	139.3549438356124	43.59911857819926	570.9964713433731	313.94119329671713
512	2.555	3.346906286191551	756.3437909467606	262.4487205960883	-103.2567015423003	500.4908426783585	139.72319782565103	43.77984308983196	571.2399370006251	314.25299284705284
513	2.56	3.3784572661237102	756.3226005572359	262.49817067564817	-102.89201082919251	500.22536489749143	140.09513003356105	43.95951957450093	571.4852605701078	314.56904579690803
514	2.565	3.410486861349535	756.3036886416563	262.547838578322	-102.52713430424006	499.9616714297655	140.47064651534288	44.13811530606562	571.7323221873883	314.88923470307543
515	2.57	3.442984836674204	756.287057989963	262.5977067341043	-102.16226158424247	499.6998684422445	140.84964317798284	44.31559944669942	571.9810004511675	315.2134293153367
516	2.575	3.475941070808475	756.2727084470765	262.64775717116186	-101.79758417444673	499.440063259257	141.23200589825885	44.49194285049828	572.2311724545274	315.54148689025897
517	2.58	3.5093455509958247	756.2606369933587	262.69797153818087	-101.43329519457646	499.18236428669695	141.61761068112185	44.66711786159689	572.4827138281177	315.87325254732787
518	2.585	3.543188366304769	756.2508378288259	262.74833112789594	-101.06958909245817	498.9268809196104	142.00632385679768	44.84109810826592	572.7354987962736	316.2085596654401
519	2.59	3.5774596996882533	756.243302460628	262.7988169017624	-100.70666134539655	498.673723432932	142.3980023155553	45.013858294495094	572.9894002469186	316.5472303176059
520	2.595	3.612149818918121	756.2380197933006	262.8494095157275	-100.34470814953313	498.4230028553343	142.7924937788947	45.185373990589525	573.2442898159511	316.8890757415562
521	2.6	3.647249066507941	756.2349762212843	262.90008934705867	-99.98392609750888	498.1748308262569	143.18963710572683	45.35562142431946	573.500037986661	317.2338968438081
522	2.605	3.682747848741902	756.2341557232165	262.9508365221817	-99.62451184484075	497.929319436285	143.58926263194138	45.52457727416705	573.7565142045522	317.58148473462256
523	2.61	3.7186366239309336	756.2355399574899	263.0016309454788	-99.26666176551254	497.6865810511499	143.991192541599	45.692218466206064	574.0135870077754	317.93162129118474
524	2.615	3.7549058900197463	756.2391083585879	263.05245232899665	-98.91057159737335	497.4467281197258	144.39524126783036	45.85852197613268	574.271124173202	318.28407974625696
525	2.62	3.7915461716700865	756.2448382337034	263.1032802230082	-98.55643607802799	497.20987296650264	144.80121592138613	46.02346463793647	574.528992877987	318.63862529949085
526	2.625	3.8285480069461055	756.2527048591668	263.15409404737005	-98.20444857199581	496.97612756911064	145.20891674465503	46.187022960660514	574.787059876293	318.99501574854844
527	2.63	3.8659019337274585	756.2626815762147	263.2048731236126	-97.85480069000266	496.74560332157296	145.6181375888525	46.3491729546485	575.0451916906645	319.3530021371603
528	2.635	3.903598475974439	756.2747398856527	263.2555967076975	-97.50768190135709	496.5184107840596	146.0286664119816	46.50988996861429	575.3032548173693	319.7123294172544
529	2.64	3.941628129967253	756.2888495409715	263.30624402337054	-97.16327914044406	496.2946594200041	146.44028579508097	46.66914853879633	575.5611159448505	320.07273712231125
530	2.645	3.9799813506384076	756.3049786395133	263.3567942960354	-96.82177640844651	496.0744573215393	146.85277347419998	46.82692225137553	575.8186421842693	320.43396004914314
531	2.65	4.018648538113219	756.3230937112921	263.40722678706794	-96.48335437147637	495.85791092428667	147.2659028854808	46.98318361924164	576.0757013109624	320.79572894536125
532	2.655	4.057620024568527	756.3431598051044	263.4575208284869	-96.14818995636217	495.6451247126193	147.67944372068115	47.137903974089966	576.332162015493	321.1577711998704
533	2.66	4.096886061514122	756.3651405715896	263.50765585789037	-95.8164559453982	495.43620091658886	148.09316249043684	47.29105337471826	576.5878941628388	321.51981153382894
534	2.665	4.1364368075949125	756.3889983429322	263.55761145356473	-95.48832057141036	495.2312392017792	148.50682309254398	47.44260053227431	576.8427690581423	321.88157268962186
535	2.67	4.176262317004742	756.4146942089205	263.6073673696667	-95.16394711453704	495.03033635341154	148.92018738253245	47.592512753077926	577.0966597173453	322.24277611551634
536	2.675	4.21635252859506	756.4421880891144	263.6569035713737	-94.84349350215743	494.83358595608195	149.3330157438084	47.74075589950856	577.3494411409379	322.6031426438017
537	2.68	4.256697255753191	756.4714388009037	263.70620026989604	-94.52711191342634	494.6410780705638	149.74506765466109	47.887294369313175	577.6009905889833	322.9623931603559
